# xmcd
#
# Track frame offsets: 
#        150
#        13901
#        33558
#        57476
#        84627
#        107210
#        132791
#        156117
#        177725
#        200314
#        220213
#        241617
#        267797
#        287176
#        307324
#
# Disc length: 4353 seconds
#
# Revision: 1
# Processed by: cddbd v1.5.2PL0 Copyright (c) Steve Scherf et al.
# Submitted via: ExactAudioCopy v0.99pb4
#
DISCID=e010ff0f
DTITLE=Etta James - From The Heart
DYEAR=1960
DGENRE=Soul
TTITLE0=At Last
TTITLE1=I've Been Loving You Too Long
TTITLE2=There Is No Greater Love
TTITLE3=He's Funny That Way
TTITLE4=I'll Take Care Of You
TTITLE5=Come Rain Or Come Shine
TTITLE6=My Man
TTITLE7=Try A Little Tenderness
TTITLE8=Teach Me Tonight
TTITLE9=Time After Time
TTITLE10=I'll Be Seeing You
TTITLE11=My Funny Valentine
TTITLE12=Body and Soul
TTITLE13=The Man I Love
TTITLE14=Night and Day
EXTD=
EXTT0=
EXTT1=
EXTT2=
EXTT3=
EXTT4=
EXTT5=
EXTT6=
EXTT7=
EXTT8=
EXTT9=
EXTT10=
EXTT11=
EXTT12=
EXTT13=
EXTT14=
PLAYORDER=
